<mxfile host="app.diagrams.net" modified="2024-06-15T15:07:51.884Z" agent="Mozilla/5.0 (Windows NT 10.0; Win64; x64) AppleWebKit/537.36 (KHTML, like Gecko) Chrome/126.0.0.0 Safari/537.36" etag="EaxTV2hPLcGVcBEiUMgZ" version="24.4.13" type="device">
  <diagram name="Страница — 1" id="fnOiPrnEoTEtQ-_MaOaU">
    <mxGraphModel dx="1888" dy="992" grid="1" gridSize="10" guides="1" tooltips="1" connect="1" arrows="1" fold="1" page="1" pageScale="1" pageWidth="827" pageHeight="1169" math="0" shadow="0">
      <root>
        <mxCell id="0" />
        <mxCell id="1" parent="0" />
        <mxCell id="0mB2jGfSR8IdtGSJnhFy-39" value="" style="html=1;whiteSpace=wrap;" parent="1" vertex="1">
          <mxGeometry x="1295" y="470" width="315" height="340" as="geometry" />
        </mxCell>
        <mxCell id="0mB2jGfSR8IdtGSJnhFy-33" value="" style="html=1;whiteSpace=wrap;" parent="1" vertex="1">
          <mxGeometry x="650" y="50" width="960" height="400" as="geometry" />
        </mxCell>
        <mxCell id="0mB2jGfSR8IdtGSJnhFy-23" value="" style="html=1;whiteSpace=wrap;" parent="1" vertex="1">
          <mxGeometry x="650" y="470" width="630" height="340" as="geometry" />
        </mxCell>
        <mxCell id="0mB2jGfSR8IdtGSJnhFy-3" value="Conference" style="swimlane;fontStyle=1;align=center;verticalAlign=top;childLayout=stackLayout;horizontal=1;startSize=26;horizontalStack=0;resizeParent=1;resizeParentMax=0;resizeLast=0;collapsible=1;marginBottom=0;whiteSpace=wrap;html=1;" parent="1" vertex="1">
          <mxGeometry x="680" y="550" width="220" height="228" as="geometry" />
        </mxCell>
        <mxCell id="0mB2jGfSR8IdtGSJnhFy-4" value="+ id: UUID&lt;br&gt;+ name: String&lt;br&gt;+ date: Date&lt;br&gt;+ description: String" style="text;strokeColor=none;fillColor=none;align=left;verticalAlign=top;spacingLeft=4;spacingRight=4;overflow=hidden;rotatable=0;points=[[0,0.5],[1,0.5]];portConstraint=eastwest;whiteSpace=wrap;html=1;" parent="0mB2jGfSR8IdtGSJnhFy-3" vertex="1">
          <mxGeometry y="26" width="220" height="74" as="geometry" />
        </mxCell>
        <mxCell id="0mB2jGfSR8IdtGSJnhFy-5" value="" style="line;strokeWidth=1;fillColor=none;align=left;verticalAlign=middle;spacingTop=-1;spacingLeft=3;spacingRight=3;rotatable=0;labelPosition=right;points=[];portConstraint=eastwest;strokeColor=inherit;" parent="0mB2jGfSR8IdtGSJnhFy-3" vertex="1">
          <mxGeometry y="100" width="220" height="8" as="geometry" />
        </mxCell>
        <mxCell id="0mB2jGfSR8IdtGSJnhFy-6" value="+ create(String name) : Conference&lt;br&gt;+ update(String name, Date date, String description) : Conference&lt;div&gt;+ delete(String id) : boolean&lt;/div&gt;&lt;div&gt;+ getById(String id) : Conference&lt;/div&gt;" style="text;strokeColor=none;fillColor=none;align=left;verticalAlign=top;spacingLeft=4;spacingRight=4;overflow=hidden;rotatable=0;points=[[0,0.5],[1,0.5]];portConstraint=eastwest;whiteSpace=wrap;html=1;" parent="0mB2jGfSR8IdtGSJnhFy-3" vertex="1">
          <mxGeometry y="108" width="220" height="120" as="geometry" />
        </mxCell>
        <mxCell id="0mB2jGfSR8IdtGSJnhFy-7" value="Lecture" style="swimlane;fontStyle=1;align=center;verticalAlign=top;childLayout=stackLayout;horizontal=1;startSize=26;horizontalStack=0;resizeParent=1;resizeParentMax=0;resizeLast=0;collapsible=1;marginBottom=0;whiteSpace=wrap;html=1;" parent="1" vertex="1">
          <mxGeometry x="990" y="550" width="220" height="228" as="geometry" />
        </mxCell>
        <mxCell id="0mB2jGfSR8IdtGSJnhFy-8" value="+ id: UUID&lt;br&gt;+ name: String&lt;br&gt;+ attachments: List&amp;lt;File&amp;gt;&lt;br&gt;+ description: String&lt;div&gt;+ conferenceId: UUID&lt;/div&gt;" style="text;strokeColor=none;fillColor=none;align=left;verticalAlign=top;spacingLeft=4;spacingRight=4;overflow=hidden;rotatable=0;points=[[0,0.5],[1,0.5]];portConstraint=eastwest;whiteSpace=wrap;html=1;" parent="0mB2jGfSR8IdtGSJnhFy-7" vertex="1">
          <mxGeometry y="26" width="220" height="74" as="geometry" />
        </mxCell>
        <mxCell id="0mB2jGfSR8IdtGSJnhFy-9" value="" style="line;strokeWidth=1;fillColor=none;align=left;verticalAlign=middle;spacingTop=-1;spacingLeft=3;spacingRight=3;rotatable=0;labelPosition=right;points=[];portConstraint=eastwest;strokeColor=inherit;" parent="0mB2jGfSR8IdtGSJnhFy-7" vertex="1">
          <mxGeometry y="100" width="220" height="8" as="geometry" />
        </mxCell>
        <mxCell id="0mB2jGfSR8IdtGSJnhFy-10" value="+ create(String name) :&amp;nbsp;&lt;span style=&quot;text-align: center;&quot;&gt;Lecture&lt;/span&gt;&lt;br&gt;+ update(String name,&amp;nbsp; List&amp;lt;File&amp;gt; attachments, String description, UUID conferenceId) :&amp;nbsp;&lt;span style=&quot;text-align: center;&quot;&gt;Lecture&lt;/span&gt;&lt;div&gt;+ delete(String id) : boolean&lt;/div&gt;&lt;div&gt;+ getById(String id) :&amp;nbsp;&lt;span style=&quot;text-align: center; background-color: initial;&quot;&gt;Lecture&lt;/span&gt;&lt;/div&gt;" style="text;strokeColor=none;fillColor=none;align=left;verticalAlign=top;spacingLeft=4;spacingRight=4;overflow=hidden;rotatable=0;points=[[0,0.5],[1,0.5]];portConstraint=eastwest;whiteSpace=wrap;html=1;" parent="0mB2jGfSR8IdtGSJnhFy-7" vertex="1">
          <mxGeometry y="108" width="220" height="120" as="geometry" />
        </mxCell>
        <mxCell id="0mB2jGfSR8IdtGSJnhFy-15" value="Schedule" style="swimlane;fontStyle=1;align=center;verticalAlign=top;childLayout=stackLayout;horizontal=1;startSize=26;horizontalStack=0;resizeParent=1;resizeParentMax=0;resizeLast=0;collapsible=1;marginBottom=0;whiteSpace=wrap;html=1;" parent="1" vertex="1">
          <mxGeometry x="730" y="116" width="220" height="310" as="geometry" />
        </mxCell>
        <mxCell id="0mB2jGfSR8IdtGSJnhFy-16" value="+ id: UUID&lt;br&gt;+ speakerIds: List&amp;lt;UUID&amp;gt;&lt;br&gt;+ lectureId: UUID&lt;div&gt;+ lectureName: String&lt;br&gt;&lt;div&gt;+ dateTime: DateTime&lt;br&gt;+ room: String&lt;/div&gt;&lt;/div&gt;&lt;div&gt;+ participantIds:&amp;nbsp;&lt;span style=&quot;background-color: initial;&quot;&gt;List&amp;lt;UUID&amp;gt;&lt;/span&gt;&lt;span style=&quot;background-color: initial;&quot;&gt;&amp;nbsp;&lt;/span&gt;&lt;/div&gt;" style="text;strokeColor=none;fillColor=none;align=left;verticalAlign=top;spacingLeft=4;spacingRight=4;overflow=hidden;rotatable=0;points=[[0,0.5],[1,0.5]];portConstraint=eastwest;whiteSpace=wrap;html=1;" parent="0mB2jGfSR8IdtGSJnhFy-15" vertex="1">
          <mxGeometry y="26" width="220" height="114" as="geometry" />
        </mxCell>
        <mxCell id="0mB2jGfSR8IdtGSJnhFy-17" value="" style="line;strokeWidth=1;fillColor=none;align=left;verticalAlign=middle;spacingTop=-1;spacingLeft=3;spacingRight=3;rotatable=0;labelPosition=right;points=[];portConstraint=eastwest;strokeColor=inherit;" parent="0mB2jGfSR8IdtGSJnhFy-15" vertex="1">
          <mxGeometry y="140" width="220" height="8" as="geometry" />
        </mxCell>
        <mxCell id="0mB2jGfSR8IdtGSJnhFy-18" value="+ create(UUID conferenceId, List&amp;lt;UUID&amp;gt; speakerIds, UUID lectureId, DateTime dateTime) :&amp;nbsp;&lt;span style=&quot;text-align: center;&quot;&gt;Schedule&lt;/span&gt;&lt;br&gt;+ update(List&amp;lt;UUID&amp;gt; speakerIds, UUID lectureId, String lectureName, DateTime dateTime, String room, List&amp;lt;UUID&amp;gt; participantIds) :&amp;nbsp;&lt;span style=&quot;text-align: center;&quot;&gt;Schedule&lt;/span&gt;&lt;div&gt;+ delete(String id) : boolean&lt;/div&gt;&lt;div&gt;+ getById(String id) :&amp;nbsp;&lt;span style=&quot;text-align: center; background-color: initial;&quot;&gt;Schedule&lt;/span&gt;&lt;/div&gt;" style="text;strokeColor=none;fillColor=none;align=left;verticalAlign=top;spacingLeft=4;spacingRight=4;overflow=hidden;rotatable=0;points=[[0,0.5],[1,0.5]];portConstraint=eastwest;whiteSpace=wrap;html=1;" parent="0mB2jGfSR8IdtGSJnhFy-15" vertex="1">
          <mxGeometry y="148" width="220" height="162" as="geometry" />
        </mxCell>
        <mxCell id="0mB2jGfSR8IdtGSJnhFy-24" value="&lt;span style=&quot;font-size: 24px;&quot;&gt;Система докладов&lt;/span&gt;" style="text;html=1;align=center;verticalAlign=middle;whiteSpace=wrap;rounded=0;" parent="1" vertex="1">
          <mxGeometry x="815" y="480" width="300" height="30" as="geometry" />
        </mxCell>
        <mxCell id="0mB2jGfSR8IdtGSJnhFy-25" value="Users" style="swimlane;fontStyle=1;align=center;verticalAlign=top;childLayout=stackLayout;horizontal=1;startSize=26;horizontalStack=0;resizeParent=1;resizeParentMax=0;resizeLast=0;collapsible=1;marginBottom=0;whiteSpace=wrap;html=1;" parent="1" vertex="1">
          <mxGeometry x="1320" y="130" width="260" height="296" as="geometry" />
        </mxCell>
        <mxCell id="0mB2jGfSR8IdtGSJnhFy-26" value="+ id: UUID&lt;br&gt;+ name: String&lt;br&gt;+ surname: String&lt;br&gt;+ description: String&lt;br&gt;+ phone number: String&lt;br&gt;+ email : String&lt;br&gt;+ address: String&lt;div&gt;+&amp;nbsp;&lt;span style=&quot;background-color: initial;&quot;&gt;notificationMethod: String&lt;/span&gt;&lt;/div&gt;" style="text;strokeColor=none;fillColor=none;align=left;verticalAlign=top;spacingLeft=4;spacingRight=4;overflow=hidden;rotatable=0;points=[[0,0.5],[1,0.5]];portConstraint=eastwest;whiteSpace=wrap;html=1;" parent="0mB2jGfSR8IdtGSJnhFy-25" vertex="1">
          <mxGeometry y="26" width="260" height="144" as="geometry" />
        </mxCell>
        <mxCell id="0mB2jGfSR8IdtGSJnhFy-27" value="" style="line;strokeWidth=1;fillColor=none;align=left;verticalAlign=middle;spacingTop=-1;spacingLeft=3;spacingRight=3;rotatable=0;labelPosition=right;points=[];portConstraint=eastwest;strokeColor=inherit;" parent="0mB2jGfSR8IdtGSJnhFy-25" vertex="1">
          <mxGeometry y="170" width="260" height="8" as="geometry" />
        </mxCell>
        <mxCell id="0mB2jGfSR8IdtGSJnhFy-28" value="+ create(String name) :&amp;nbsp;&lt;span style=&quot;text-align: center;&quot;&gt;Participant&lt;/span&gt;&lt;br&gt;+ update(String name, String surname, String description, String phoneNumber, String email, String address) :&amp;nbsp;&lt;span style=&quot;text-align: center;&quot;&gt;Participant&lt;/span&gt;&lt;div&gt;+ delete(String id) : boolean&lt;/div&gt;&lt;div&gt;+ getById(String id) :&amp;nbsp;&lt;span style=&quot;text-align: center; background-color: initial;&quot;&gt;Participant&lt;/span&gt;&lt;/div&gt;" style="text;strokeColor=none;fillColor=none;align=left;verticalAlign=top;spacingLeft=4;spacingRight=4;overflow=hidden;rotatable=0;points=[[0,0.5],[1,0.5]];portConstraint=eastwest;whiteSpace=wrap;html=1;" parent="0mB2jGfSR8IdtGSJnhFy-25" vertex="1">
          <mxGeometry y="178" width="260" height="118" as="geometry" />
        </mxCell>
        <mxCell id="0mB2jGfSR8IdtGSJnhFy-34" value="&lt;span style=&quot;font-size: 24px;&quot;&gt;Система расписания&lt;/span&gt;" style="text;html=1;align=center;verticalAlign=middle;whiteSpace=wrap;rounded=0;" parent="1" vertex="1">
          <mxGeometry x="960" y="70" width="300" height="30" as="geometry" />
        </mxCell>
        <mxCell id="0mB2jGfSR8IdtGSJnhFy-35" value="Vote" style="swimlane;fontStyle=1;align=center;verticalAlign=top;childLayout=stackLayout;horizontal=1;startSize=26;horizontalStack=0;resizeParent=1;resizeParentMax=0;resizeLast=0;collapsible=1;marginBottom=0;whiteSpace=wrap;html=1;" parent="1" vertex="1">
          <mxGeometry x="1327.5" y="550" width="250" height="206" as="geometry" />
        </mxCell>
        <mxCell id="0mB2jGfSR8IdtGSJnhFy-36" value="+ id: UUID&lt;br&gt;+ participantId: String&lt;br&gt;+ scheduleId: String" style="text;strokeColor=none;fillColor=none;align=left;verticalAlign=top;spacingLeft=4;spacingRight=4;overflow=hidden;rotatable=0;points=[[0,0.5],[1,0.5]];portConstraint=eastwest;whiteSpace=wrap;html=1;" parent="0mB2jGfSR8IdtGSJnhFy-35" vertex="1">
          <mxGeometry y="26" width="250" height="54" as="geometry" />
        </mxCell>
        <mxCell id="0mB2jGfSR8IdtGSJnhFy-37" value="" style="line;strokeWidth=1;fillColor=none;align=left;verticalAlign=middle;spacingTop=-1;spacingLeft=3;spacingRight=3;rotatable=0;labelPosition=right;points=[];portConstraint=eastwest;strokeColor=inherit;" parent="0mB2jGfSR8IdtGSJnhFy-35" vertex="1">
          <mxGeometry y="80" width="250" height="8" as="geometry" />
        </mxCell>
        <mxCell id="0mB2jGfSR8IdtGSJnhFy-38" value="+ create(String name) :&amp;nbsp;&lt;span style=&quot;text-align: center;&quot;&gt;Vote&lt;/span&gt;&lt;br&gt;+ update(UUID participantId, UUID scheduleId) :&amp;nbsp;&lt;span style=&quot;text-align: center;&quot;&gt;Vote&lt;/span&gt;&lt;div&gt;+ delete(String id) : boolean&lt;/div&gt;&lt;div&gt;+ getById(String id) :&amp;nbsp;&lt;span style=&quot;text-align: center; background-color: initial;&quot;&gt;Vote&lt;/span&gt;&lt;/div&gt;" style="text;strokeColor=none;fillColor=none;align=left;verticalAlign=top;spacingLeft=4;spacingRight=4;overflow=hidden;rotatable=0;points=[[0,0.5],[1,0.5]];portConstraint=eastwest;whiteSpace=wrap;html=1;" parent="0mB2jGfSR8IdtGSJnhFy-35" vertex="1">
          <mxGeometry y="88" width="250" height="118" as="geometry" />
        </mxCell>
        <mxCell id="0mB2jGfSR8IdtGSJnhFy-40" value="&lt;span style=&quot;font-size: 24px;&quot;&gt;Система голосования&lt;/span&gt;" style="text;html=1;align=center;verticalAlign=middle;whiteSpace=wrap;rounded=0;" parent="1" vertex="1">
          <mxGeometry x="1310" y="480" width="300" height="30" as="geometry" />
        </mxCell>
        <mxCell id="0mB2jGfSR8IdtGSJnhFy-47" value="" style="endArrow=open;html=1;endSize=12;startArrow=diamondThin;startSize=14;startFill=1;edgeStyle=orthogonalEdgeStyle;align=left;verticalAlign=bottom;rounded=0;exitX=0;exitY=0.969;exitDx=0;exitDy=0;exitPerimeter=0;entryX=0.997;entryY=0.239;entryDx=0;entryDy=0;entryPerimeter=0;" parent="1" source="0mB2jGfSR8IdtGSJnhFy-8" target="0mB2jGfSR8IdtGSJnhFy-4" edge="1">
          <mxGeometry x="-0.5583" y="12" relative="1" as="geometry">
            <mxPoint x="1410" y="750" as="sourcePoint" />
            <mxPoint x="1570" y="750" as="targetPoint" />
            <Array as="points">
              <mxPoint x="945" y="648" />
              <mxPoint x="945" y="594" />
            </Array>
            <mxPoint as="offset" />
          </mxGeometry>
        </mxCell>
        <mxCell id="0mB2jGfSR8IdtGSJnhFy-49" value="" style="endArrow=open;html=1;endSize=12;startArrow=diamondThin;startSize=14;startFill=1;edgeStyle=orthogonalEdgeStyle;align=left;verticalAlign=bottom;rounded=0;exitX=1.003;exitY=0.9;exitDx=0;exitDy=0;exitPerimeter=0;" parent="1" source="0mB2jGfSR8IdtGSJnhFy-16" edge="1">
          <mxGeometry x="-1" y="3" relative="1" as="geometry">
            <mxPoint x="710" y="380" as="sourcePoint" />
            <mxPoint x="1320" y="245" as="targetPoint" />
            <Array as="points">
              <mxPoint x="1319" y="245" />
            </Array>
          </mxGeometry>
        </mxCell>
      </root>
    </mxGraphModel>
  </diagram>
</mxfile>
